# xmcd CD database file
#
# Track frame offsets:
#	150
#	9445
#	28162
#
# Disc length: 623 seconds
#
# Revision: 0
# Processed by: cddbd v1.5.1PL0 Copyright (c) Steve Scherf et al.
# Submitted via: CDex 1.51
#
DISCID=19026d03
DTITLE=斎藤一人 - あなたが一番好き（斎藤一人とみっちゃん先生が行く付属）
DYEAR=2005
DGENRE=Soul
TTITLE0=あなたが一番好きMC
TTITLE1=あなたが一番好き本編
TTITLE2=あなたが一番好きカラオケ
EXTD=YEAR: 2005
EXTT0=
EXTT1=
EXTT2=
PLAYORDER=
